PathFileType	4	(X/Y/Z)	48_2_19_p1_0-319.trc
DataRate	CameraRate	NumFrames	NumMarkers	Units	OrigDataRate	OrigDataStartFrame	OrigNumFrames
57.0	57.0	6	27	m	57.0	40	320
Frame#	Time	RHip			RKnee			RAnkle			RBigToe			RSmallToe			RHeel			LHip			LKnee			LAnkle			LBigToe			LSmallToe			LHeel			Neck			Head			Nose			RShoulder			RElbow			RWrist			RThumb			RIndex			RPinky			LShoulder			LElbow			LWrist			LThumb			LIndex			LPinky			
		X1	Y1	Z1	X2	Y2	Z2	X3	Y3	Z3	X4	Y4	Z4	X5	Y5	Z5	X6	Y6	Z6	X7	Y7	Z7	X8	Y8	Z8	X9	Y9	Z9	X10	Y10	Z10	X11	Y11	Z11	X12	Y12	Z12	X13	Y13	Z13	X14	Y14	Z14	X15	Y15	Z15	X16	Y16	Z16	X17	Y17	Z17	X18	Y18	Z18	X19	Y19	Z19	X20	Y20	Z20	X21	Y21	Z21	X22	Y22	Z22	X23	Y23	Z23	X24	Y24	Z24	X25	Y25	Z25	X26	Y26	Z26	X27	Y27	Z27	
40	0.7017543859649122	0.2066965542690581	0.4485970583054182	0.6615282653667991	0.185844767013331	0.5510561275875787	1.0747936547318897	0.1559278221648315	0.6946132055020828	1.5266372098329144	0.10931747020234611	0.48983634260017583	1.5581511648732251	0.17842466707332286	0.4847194484581547	1.556315019819635	0.13538477953151662	0.7745204570436588	1.5805575888260428	-0.030278549485627932	0.5235233114173209	0.6436269255358943	-0.041862935898498835	0.6148581923927355	1.0868553588388885	-0.047560129560468845	0.6922288878099048	1.4796587379377186	-0.053526616223466265	0.49229314380090455	1.5270124238902814	-0.1047837326765895	0.5417112289411693	1.529120488241068	-0.029270968980696133	0.7441947411228503	1.5546075981807008	0.12468707517496619	0.402080368724587	0.001420610563304863	0.14667259888811546	0.2807077796989446	-0.2591737503605136	0.1119028945855488	0.21552168916737952	-0.10394099934248527	0.300945052024841	0.39421695290679776	0.131943816071018	0.2958360073507309	0.3656166361809655	0.4088394875588279	0.17653721780546883	0.2816369317808282	0.649276754144039	0.05049238568397004	0.33613128124990793	0.7226896556764941	0.049047406115340086	0.351278918435893	0.7498779246183715	0.05735017386535047	0.34038005380937936	0.7492543565144536	-0.059962079887079606	0.43505971187869175	0.07352150181434935	-0.09515245630491818	0.4344934715959444	0.36008630866443586	-0.029128543833026037	0.2811068513724715	0.6057742687441482	0.04519628339536046	0.2963363472130995	0.6814622670098625	0.03470067109940511	0.2741069742727608	0.7165907241125717	0.029543169344859614	0.30128606996062396	0.7233658428961443
41	0.7192982456140351	0.20305434393820168	0.44727796299474515	0.6574093155547077	0.1869687103234471	0.5497423649398937	1.0700702491970246	0.15590756653697524	0.6945886462316028	1.526454750950542	0.10931057713107159	0.4899812224317958	1.5582634646268825	0.1785003661146995	0.48510931769647875	1.5564604181228654	0.13532761062154872	0.7743125411589359	1.5804434568828145	-0.026753884213515912	0.507650760521126	0.6286579501611208	-0.040983398266025234	0.6146299911540414	1.0825131393428231	-0.0475563601833779	0.6921748769255932	1.4796578487819876	-0.05357160387524656	0.49221820591555954	1.5269656333789463	-0.1085765026243635	0.5565782479775595	1.5359057751581755	-0.02912544924884582	0.7443781944976214	1.5542765181173661	0.12473006175295581	0.4020438402709379	0.0013309472038451062	0.14669646680327325	0.28070751230443536	-0.25923272854386753	0.11193285423514808	0.21552501086342635	-0.10393833205584868	0.30242191153746156	0.3808290088684446	0.1320167722049894	0.2959164446217621	0.36556926132771594	0.40864142068774095	0.18995031148101307	0.2573469487453937	0.6490077328362595	0.056085300754196925	0.3109198981740446	0.721850456595619	0.05777666493290736	0.3421442347244514	0.7613089903579979	0.07135581629424909	0.3561504441037717	0.766640450727523	-0.05263494488818975	0.4242501778452092	0.07081769527708637	-0.09510726044311585	0.43488069558882114	0.35996544579442097	-0.0332580338846112	0.29312033416494493	0.6113403622317046	0.05348812205241766	0.23227721045806282	0.6682691107066744	0.035620562278514435	0.23709369611379988	0.7091083083956441	0.020096560883994766	0.28021531330966726	0.7292092477312881
42	0.7368421052631579	0.2062635933307662	0.4329513198384137	0.6510181149594068	0.18776678194710042	0.5498407972868683	1.0668360218558255	0.15586057824484803	0.6944599046271502	1.526405102610342	0.10931851451658786	0.4899527384538399	1.5582936809214163	0.1834103958402451	0.497893798290144	1.5629403227407173	0.13531141578613307	0.7742035115197098	1.5802126349583216	-0.022215584516133154	0.49378690250344853	0.6393459415058437	-0.04161377319371571	0.6126492740405828	1.0770029382249693	-0.04758235411812929	0.6912314380959911	1.4832691412083727	-0.05359450343238178	0.49242403881261854	1.5270112078103126	-0.1048134115960871	0.5416493203293418	1.5291288253102113	-0.02914911236877573	0.7442765323358571	1.5538872679035058	0.12479168627620114	0.40205155916532925	0.0013226874104318642	0.14676165280846795	0.28074433061975507	-0.25906666155609853	0.11199075828339268	0.21547611548031223	-0.10389911268726276	0.3009877087854681	0.39426579587840294	0.13204702984318636	0.3011542429492996	0.37650167739533	0.4102481967297406	0.19030081518074488	0.257515543392147	0.648978282035312	0.06334231746837872	0.2718654852737277	0.7247103931700918	0.06388184710373035	0.31861739571368625	0.7660472927496484	0.09226589135853233	0.35649269054913263	0.7785803851075835	-0.05689463683030416	0.42307278476284144	0.07069851452589238	-0.09881708520700408	0.43336457017791313	0.3631017736188394	-0.039834585992340035	0.31958099866594086	0.6231158535523736	0.03965908579916633	0.20980016305647053	0.6702392589911168	0.024738548041476665	0.23810694289861414	0.7090147878281039	0.015682001166667164	0.2791611993245263	0.7250594137334705
43	0.7543859649122807	0.20528837057353097	0.4324234958579583	0.655182546582005	0.192142339387028	0.5636167539127298	1.074910974681816	0.15487013207219735	0.6925316437637655	1.5209860000490933	0.10918214529521766	0.48974116128233036	1.558406092491538	0.17820536999823983	0.48487688949485197	1.5567958641543704	0.13540483275519055	0.774397063509899	1.5804206210143352	-0.02631760618884927	0.5054507445627734	0.6455270954034315	-0.03997985290405974	0.6143656397021817	1.0783313813361504	-0.0439168647024519	0.6753884192063263	1.4767586006994085	-0.05053443226553014	0.47789472391675625	1.5202536495309524	-0.10587306893607551	0.5420160913822513	1.5325992000907305	-0.02913745034744502	0.7442500201979273	1.5536623014465951	0.12479529800421363	0.40207984090364796	0.001311293038356539	0.14673230114561703	0.28069100396384206	-0.25902315563981293	0.11200919934347715	0.21545929687343007	-0.1038655329794373	0.3010497657139504	0.3945087124157247	0.13203657894748835	0.301295783010879	0.37671273333516037	0.41022983490837883	0.19521755087835224	0.2672978445379876	0.6548654421870833	0.07718762046589686	0.25962500487479223	0.7315387682324048	0.08503052004286339	0.27773952937392327	0.7693775340933149	0.11006318149364515	0.3263516778972761	0.7806326622780422	-0.06074170987453888	0.4116121262878159	0.07082966530164168	-0.09907926380042391	0.43361691975676037	0.36304723055567567	-0.0476400358606184	0.330325127821553	0.6210212642324242	0.023919264930660007	0.21246851048063917	0.6848213506543008	0.0044323111339879895	0.23841164651127497	0.7111612128479228	-0.005671734313975675	0.27612117598019476	0.7231580861175274
44	0.7719298245614035	0.20536087473106454	0.4328956747701587	0.6590175400851519	0.18696211570931873	0.5505863657858664	1.0710460259467403	0.1558514937790446	0.6947530223725488	1.5262342203312145	0.1092613692564854	0.4898654415844365	1.5582305820757754	0.1795405472688561	0.4847642965682545	1.5523939604604637	0.1353116736987468	0.7743253631021926	1.5801102951865857	-0.025663095674826712	0.5083117579172155	0.6498597236762277	-0.035567328770244405	0.6150616483244031	1.0788408056764263	-0.047535996125558005	0.6912139712898178	1.4832012781005437	-0.05045034973318762	0.47796816670431064	1.5203866700504336	-0.10588048426627242	0.5421030794321602	1.532668301212759	-0.02906315818132145	0.7443196015557013	1.5532414834222412	0.12484684612234681	0.40201354491118335	0.0012325143916837341	0.14672217920379313	0.28097105311187753	-0.255866961933601	0.1120484040610402	0.21540478444841568	-0.10386943171614482	0.30256619572126164	0.38110992016850576	0.13199867282399533	0.3012819381525156	0.3765617611561466	0.4100191815108832	0.2019625955727209	0.25631396642764614	0.6574392445468759	0.08255352955772055	0.2615893196104003	0.7407760417849013	0.09539837722261056	0.26289285025216935	0.774062247556063	0.12420910211653631	0.31016323093891635	0.786972202273453	-0.06102406128194541	0.4112495145000261	0.07376321011228451	-0.09939091098964681	0.43243005057003975	0.36250537680857847	-0.05521496905168948	0.33186131787421147	0.6245328083378725	0.009699647702150474	0.24977477643169554	0.6986420066554458	-0.01469138514310394	0.25038102615145363	0.712955194980631	-0.026282589075969393	0.2631767074285014	0.7227495113206585
45	0.7894736842105263	0.20517284878749925	0.4327923822712589	0.6549218520871571	0.18851233208896356	0.5526278452387064	1.0720409442978975	0.15586168689144064	0.6947427783491458	1.526355961113273	0.10424533309454807	0.47686203049361936	1.551673175157023	0.17850688956792346	0.4843011289195129	1.5559001576312046	0.13263002933518164	0.7928964304316439	1.58833221571061	-0.021509436640545963	0.49465698571226924	0.6403823302918653	-0.03459982259738006	0.6146521786143622	1.0752060958616116	-0.04767459160453205	0.6913517640907038	1.4835942289631396	-0.05767383861522438	0.47862559401771015	1.520268911251398	-0.10595966032850711	0.5420826887254324	1.532762997381408	-0.028504400413710326	0.7465353858516433	1.5593815530462478	0.12879841092432429	0.4027962471870484	0.001367375282529731	0.14674202318122548	0.28084729239997763	-0.2557919098684075	0.11213750974242463	0.2154288450753185	-0.10376809459999357	0.30103356527862535	0.39458642867133575	0.13197156668807175	0.30676070651404613	0.38738406716057494	0.41144169094532873	0.20319534229076092	0.25741270203925004	0.6648969876507463	0.09769705922180921	0.2508064282562529	0.7583807273080563	0.10695406836904495	0.2604548023881	0.7778077800148936	0.14750072332744046	0.3089671911712792	0.7943844820022499	-0.05639621221237543	0.4127283034910919	0.07087908627321843	-0.09936326542646483	0.4328674905407266	0.35879292587143113	-0.06011277769509721	0.3314666644879439	0.6279323479728558	-0.006690772637838898	0.25116816800503383	0.7024124369090108	-0.03232427464957862	0.22718806614600995	0.7076351722047747	-0.05340121316790145	0.26474669316333194	0.7296218152849023
